<svg width="24" height="24" viewBox="0 0 24 24" fill="none" xmlns="http://www.w3.org/2000/svg">
<path d="M1 1V23H23V1H1ZM18.2902 9.46725C18.4808 13.6995 15.3247 18.4185 9.73767 18.4185C8.03817 18.4185 6.45692 17.9208 5.125 17.0664C6.72183 17.2543 8.315 16.8116 9.58 15.8207C8.26275 15.7959 7.15175 14.926 6.7695 13.7307C7.24158 13.8205 7.70542 13.7939 8.128 13.6793C6.68058 13.3888 5.68233 12.0852 5.71442 10.691C6.11958 10.9165 6.58433 11.0522 7.07658 11.0677C5.73733 10.1722 5.35783 8.403 6.14525 7.05C7.62933 8.8705 9.84675 10.0686 12.3474 10.1942C11.9083 8.31225 13.3365 6.5 15.2789 6.5C16.1442 6.5 16.9262 6.86483 17.4753 7.45058C18.1609 7.31583 18.8053 7.06558 19.3865 6.72092C19.1619 7.424 18.6843 8.01342 18.0637 8.38558C18.6724 8.31225 19.2527 8.15092 19.7917 7.91167C19.3883 8.513 18.8778 9.04283 18.2902 9.46725Z" fill="#888888"/>
</svg>
