<svg width="132" height="32" viewBox="0 0 132 32" fill="none" xmlns="http://www.w3.org/2000/svg">
<g clip-path="url(#clip0)">
<path d="M16.1621 1.36791V11.7481L21.7597 6.78497V1.33765L16.1621 1.36791Z" fill="white"/>
<path d="M16.1622 15.3796V18.5028C16.1622 23.0301 13.7898 26.5769 8.7027 26.5769C7.09535 26.649 5.49995 26.2675 4.0961 25.4753L0 29.1008C2.24625 30.9166 5.24925 31.879 8.7027 31.879C16.8829 31.879 21.7598 26.238 21.7598 18.5028V10.4165L16.1622 15.3796Z" fill="white"/>
<path d="M44.06 8.24967C43.039 6.53679 40.2402 4.9147 37.021 4.9147C32.8648 4.9147 30.8708 6.65784 30.8708 8.89124C30.8708 11.4939 33.9219 12.2202 37.4775 12.6499C43.6696 13.4186 49.4354 15.0709 49.4354 22.1767C49.4354 28.8345 43.5856 31.7095 36.9729 31.7095C30.9069 31.7095 26.2402 29.8271 24.036 24.3556L28.7027 21.9346C30.018 25.2272 33.4534 26.6798 37.057 26.6798C40.6606 26.6798 43.8859 25.4208 43.8859 22.1767C43.8859 19.3562 40.9609 18.2062 37.021 17.7764C30.9549 17.0501 25.3573 15.428 25.3573 8.69756C25.3573 2.56629 31.3814 0.0423681 36.8468 0C41.4714 0 46.2462 1.32552 48.5105 5.93758L44.06 8.24967Z" fill="white"/>
<path d="M60.3544 6.15548H50.943V1.02289H75.3694V6.15548H65.952V30.9408H60.3544V6.15548Z" fill="white"/>
<path d="M103.087 27.5574C101.595 29.0175 99.8291 30.1626 97.8923 30.9255C95.9554 31.6884 93.8868 32.0537 91.8079 32C80.7868 32 76.1202 24.3496 76.0781 16.572C76.0361 8.79443 81.0811 0.835281 91.8079 0.835281C93.832 0.828875 95.8372 1.22735 97.7074 2.00761C99.5776 2.78787 101.275 3.9344 102.703 5.38077L98.973 9.01232C97.0408 7.16675 94.4698 6.15467 91.8079 6.19182C84.6367 6.19182 81.5436 11.5726 81.5977 16.572C81.6517 21.5714 84.4805 26.704 91.8079 26.704C94.5856 26.687 97.2527 25.605 99.2673 23.6777L103.087 27.5574Z" fill="white"/>
<path d="M130.895 1.53733L117.718 15.8517L132.012 30.9408V31.2797H125.087L112.661 18.0306V31.2797H107.063V1.36786H112.661V14.0178L123.94 1.36786H130.895V1.53733Z" fill="white"/>
</g>
<defs>
<clipPath id="clip0">
<rect width="132" height="32" fill="white"/>
</clipPath>
</defs>
</svg>
