<svg width="24" height="24" viewBox="0 0 24 24" fill="none" xmlns="http://www.w3.org/2000/svg">
<path fill-rule="evenodd" clip-rule="evenodd" d="M23 23H1V1H23V23ZM15.9013 18.281C16.0984 18.4212 16.3514 18.4561 16.5778 18.3699C16.8033 18.2847 16.9702 18.0912 17.0206 17.8566C17.5513 15.3614 18.8402 9.04375 19.3232 6.77408C19.359 6.60267 19.2985 6.42483 19.1647 6.31025C19.0299 6.19658 18.8429 6.16358 18.677 6.225C16.1149 7.17283 8.22333 10.1337 4.99758 11.3281C4.79317 11.4033 4.66025 11.6003 4.66667 11.8167C4.674 12.0321 4.81975 12.22 5.02875 12.2832C6.47525 12.715 8.37458 13.3173 8.37458 13.3173C8.37458 13.3173 9.261 15.9976 9.72392 17.3598C9.78167 17.5312 9.91642 17.6659 10.0924 17.7118C10.2693 17.7576 10.4563 17.7099 10.5883 17.5853C11.3317 16.884 12.4803 15.7996 12.4803 15.7996C12.4803 15.7996 14.6629 17.4001 15.9013 18.281ZM9.173 12.979L10.1988 16.3633L10.427 14.2202C10.427 14.2202 14.3907 10.6452 16.6512 8.6065C16.7172 8.54692 16.7263 8.447 16.6713 8.37642C16.6163 8.30583 16.5164 8.28933 16.4412 8.337C13.8223 10.0099 9.173 12.979 9.173 12.979Z" fill="#888888"/>
</svg>
